<?xml version="1.0" encoding="utf-8"?>
<!-- Generator: Adobe Illustrator 19.1.0, SVG Export Plug-In . SVG Version: 6.00 Build 0)  -->
<svg version="1.1" id="Layer_1" xmlns="http://www.w3.org/2000/svg" xmlns:xlink="http://www.w3.org/1999/xlink" x="0px" y="0px"
	 width="208.2px" height="117.8px" viewBox="-201 338.2 208.2 117.8" style="enable-background:new -201 338.2 208.2 117.8;"
	 xml:space="preserve">
<style type="text/css">
	.st0{fill:#00643E;}
	.st1{fill:#F99B1F;}
	.st2{clip-path:url(#SVGID_2_);}
	.st3{fill:url(#SVGID_3_);}
	.st4{clip-path:url(#SVGID_5_);}
	.st5{fill:url(#SVGID_6_);}
</style>
<g id="Layer_2">
	<g id="Layer_1-2">
		<path class="st0" d="M-61.7,355.3c-0.9,0.4-1.4-1.9-1.5-2.5c-0.1-0.6-0.2-1.1-0.9-0.9c-0.8,0.2-0.3,1.1-0.1,1.6
			c0.2,0.7,0.3,1.4,0.4,2c0,0-0.1,0.6-0.6,0.7c-1.4,0.3-1.3-2.9-1.3-2.9s-0.2-0.6-0.6-0.6s-0.8,0.7-0.8,0.8c0.2,1.1,0.4,2.1,0.8,3.1
			c0.6,1.9,1.9,1.6,2.5,1.4s1-1.3,1.2-1.4c0.2-0.1,1.9,0.2,2.1-0.7c0.6-2.2-0.8-4.2-1.2-4.8c-0.4-0.6-0.9,0-0.9,0
			C-61.8,352.3-60.8,354.9-61.7,355.3 M-17.9,345.2c-1.7,0.8-2.8,2.4-2.8,4.3c-0.1,1.9,2.4,2.8,2.4,2.8c-0.4,0.8-0.6,1.6-0.4,2.5
			c0.2,0.9,0.4,0.6,0.4,0.6c0.5-1.7,1.8-3,3.4-3.6c0.8-0.3,0.9-0.7,0.9-0.7s0.7-2.7,0.3-2.7c-0.8,0.2-1.6,0.6-2.3,1
			c-0.5,0.3-1.8,0.6-2.1,0.1c-0.7-1.2,0.8-1.2,1.1-1.2c0.3,0,0.8,0,2-0.9c0.5-0.4,0.4-0.8,0.1-1.2
			C-15.8,345.3-16.9,344.9-17.9,345.2 M-23.1,345.7c2.1-1.6,4.2-3,6.4-4.4c0.8-0.5,1.2-1.4,1.1-2.3c-3,1.2-5.7,2.9-7.9,5.1
			C-24.4,344.9-23.3,345.7-23.1,345.7 M-74.9,355.6c4-1.7,7.3-4.5,9.8-8.1l0.9,0.8c0,0,1.2-0.6,1-3.6l-0.6-0.9c0,0,0.8-2.5-0.5-3.7
			c-1.3-1.2-3.1,0.5-3.5,1.2c-0.5,0.7-1.6,3,1.3,5.5c0,0-2.5,4.7-10.4,8.6c-0.1,0.1-0.3,0.2-0.3,0.4
			C-77.3,356.1-76.7,356.4-74.9,355.6 M-66.2,342c0.7-0.7,1.9,1,0.3,1.8C-66.2,343.9-67,342.7-66.2,342 M-13.1,364.8l4.4-4.8
			c0,0,0.4,13,0,16.1s1.8-1.3,2-4.9c0.2-3.6,0.1-13.6,0.1-13.6s11.2-11.9,12.6-18c0.4-1.5-0.6-1.1-1-0.6s-9,12.9-12,15.2l-0.8-6.3
			c0,0,0.3-0.8,0.8-0.5s0.6,0.6,0.9,0.5c0.3-0.2,0.1-0.6,0.1-0.6l-2.8-7.5c0,0-0.3-0.6-0.6-0.2c-0.5,0.9-0.9,1.9-1.3,2.9
			c0,0,2.1,8.7,1.6,14l-6,6.2l-13-13.8c0,0-0.5-0.9,0.3-0.9c0.8,0,0.9-0.6,0.3-1c-0.6-0.4-6.7-4.7-6.7-4.7l0.3,4.3l17,18.6
			c-1.9,1.6-2.9,3.9-3,6.3c0.1,3.8,1.3,4.2,2.9,4.3c1.6,0.1,5-1.1,5.2-5.6C-11.6,366.5-13.2,364.8-13.1,364.8 M-15.5,371.2
			c-1.6,0.2-2.2-0.2-2.2-0.8c0-0.6,0.9-3.1,2.7-3.6c0,0,1.5,1.3,1.4,2C-13.5,369.9-14.3,371-15.5,371.2 M-24.5,370.1
			c-0.1-4.7-5-5.2-5-5.2c0.5-0.4,1.5-2.4,1.8-5.7c0.3-3.7-1.6-6.8-2.1-6.8s-2.3,5.6-2.7,8.1c-0.4,2.5-1.4,2.9-1.4,2.9
			c-1,0.9-2.9,1.7-8.6,2.6s-9.1-2.1-10.2-4.9c-1.1-2.8-2.9-20.9-3.1-22c-0.1-1.1-0.6-0.7-0.9-0.2c-0.4,2.8-0.5,5.7-0.3,8.5
			c0.1,3.4,1.2,7.5,1.4,10.3c0.3,4.2-2.8,6.6-4.1,6.8s-1.4,0.9-1.4,0.9s-0.6,3.1-0.4,3.3s4.3,0.1,4.8,0.2s1.8,0.2,1.4,1
			c-0.2,0.5-2.9,4-9,5.2c-1.9,0.5-4,0.5-5.9,0c-1.5-0.4-2.9-1.4-3.8-2.7c-2.8-4.8,0.7-9.8,0.4-10.3c-0.9-1.4-3.6,4.2-3.5,7
			c0.1,4,2.9,7.4,4.4,8.1c3.8,1.8,8.2,1.8,11.9-0.1c6.5-3,8.2-8,7.9-9.5c-0.3-1-1.1-1.8-2.2-2c-0.5-0.1-0.5-0.6-0.3-1s0.6-0.6,1.3,0
			c1,0.9,3.1,4.7,9.3,5.1c2.9,0,5.8-0.5,8.5-1.4c0.5-0.2,2.6-1.5,2.9-0.1c0.4,2,0.9,5.6,5.2,6.3C-27.4,374.6-24.3,375-24.5,370.1
			 M-30,358.5c0.4-0.1,1.1,1,0.6,2.2c-0.5,1.2-0.9,1.9-1.7,1.3S-30.8,358.8-30,358.5 M-29.4,370.5c-0.6-0.4-1.6-1.3-1.1-2
			c0.3-0.4,3.1,0,3.5,1.6C-26.8,370.9-28.8,370.8-29.4,370.5 M-48.9,375.1c0.8-0.5,1.2-1.4,1.1-2.4c-2.9,1.2-5.6,2.9-7.9,5.1
			c-0.9,0.8,0.3,1.6,0.4,1.6C-53.3,377.9-51.1,376.4-48.9,375.1"/>
		<path class="st0" d="M-50.2,381.5h4.4v32.7h-4L-71.6,389v25.2H-76v-32.7h3.8l22,25.4V381.5z"/>
		<path class="st0" d="M-27.7,414.2h-11.1v-32.7h8.6c2.2-0.1,4.3,0.3,6.3,1.1c2.9,1.3,4.8,4.2,4.6,7.4c0,3.2-1.7,5.5-5,6.9
			c2.2,0.4,4.2,1.4,5.7,3c1.4,1.5,2.1,3.4,2.1,5.4c0,1.6-0.4,3.1-1.3,4.5c-0.9,1.4-2.3,2.5-3.8,3.2
			C-23.4,413.9-25.6,414.3-27.7,414.2z M-30.1,385.7h-4v9.8h3.1c2.5,0,4.3-0.5,5.3-1.4c1-0.9,1.6-2.3,1.6-3.7
			C-24.1,387.2-26.1,385.7-30.1,385.7z M-29.7,399.7h-4.4V410h4.6c1.8,0.1,3.5-0.1,5.2-0.6c1.8-0.8,3-2.6,3-4.6c0-1-0.3-1.9-0.9-2.7
			c-0.6-0.9-1.5-1.5-2.5-1.9C-26.3,399.8-28,399.6-29.7,399.7L-29.7,399.7z"/>
		<path class="st0" d="M-11.8,381.5H6.7v4.2H-7.1v10H6.3v4.2H-7.1V410H7.2v4.2h-19L-11.8,381.5z"/>
		<path class="st1" d="M-40.1,421.8h2.8v20.7h-2.5l-13.8-15.9v15.9h-2.8v-20.7h2.4l13.9,16L-40.1,421.8z"/>
		<path class="st1" d="M-22.6,435.9h-9.6c0,1.2,0.5,2.3,1.3,3.1c0.8,0.8,2,1.2,3.1,1.2c1.8,0,3.5-0.6,4.9-1.7v2.6
			c-0.8,0.5-1.6,0.9-2.5,1.2c-0.9,0.2-1.9,0.4-2.9,0.3c-1.3,0.1-2.5-0.3-3.6-0.9c-1-0.6-1.7-1.5-2.2-2.5c-0.6-1.1-0.9-2.4-0.8-3.6
			c-0.1-1.8,0.6-3.7,1.8-5c1.2-1.3,2.8-2,4.6-2c1.7-0.1,3.2,0.6,4.3,1.9c1.1,1.4,1.7,3.2,1.6,5.1L-22.6,435.9z M-32.1,434.3h6.9
			c0-0.9-0.4-1.8-1-2.5c-0.6-0.6-1.5-0.9-2.3-0.9c-0.9,0-1.7,0.3-2.4,0.9C-31.6,432.5-32,433.3-32.1,434.3z"/>
		<path class="st1" d="M-22.5,431l5.1-5v2.8h4.3v2.4h-4.3v6.7c0,1.6,0.6,2.3,1.9,2.3c1.1,0,2.2-0.4,3.1-1v2.5
			c-1,0.6-2.2,0.9-3.4,0.9c-1.1,0-2.2-0.3-3.1-1.1c-0.2-0.2-0.5-0.5-0.6-0.7c-0.2-0.3-0.3-0.7-0.4-1.1c-0.1-0.8-0.2-1.7-0.2-2.5v-6
			h-2.4V431z"/>
		<g>
			<defs>
				<path id="SVGID_1_" d="M-176.6,365.2c-0.2,1.5-0.4,2.9-0.4,4.4c0.3,15.2,12.9,27.3,28.1,27c14.8-0.3,26.7-12.2,27-27
					c0-1.5-0.1-3-0.4-4.4H-176.6z"/>
			</defs>
			<clipPath id="SVGID_2_">
				<use xlink:href="#SVGID_1_"  style="overflow:visible;"/>
			</clipPath>
			<g class="st2">
				
					<radialGradient id="SVGID_3_" cx="-1039.53" cy="1293.2343" r="1.89" gradientTransform="matrix(92.2 0 0 92.2 95615.6406 -118879.3438)" gradientUnits="userSpaceOnUse">
					<stop  offset="0" style="stop-color:#FCEE23"/>
					<stop  offset="1.000000e-002" style="stop-color:#FCEE23"/>
					<stop  offset="0.11" style="stop-color:#FCE923"/>
					<stop  offset="0.24" style="stop-color:#FBDB23"/>
					<stop  offset="0.37" style="stop-color:#F9C423"/>
					<stop  offset="0.51" style="stop-color:#F6A324"/>
					<stop  offset="0.65" style="stop-color:#F37924"/>
					<stop  offset="0.73" style="stop-color:#F16024"/>
					<stop  offset="1" style="stop-color:#F16024"/>
				</radialGradient>
				<rect x="-176.9" y="365.2" class="st3" width="55.1" height="32"/>
			</g>
		</g>
		<g>
			<defs>
				<path id="SVGID_4_" d="M-176.7,406.3v38.3c0,9.4,6.8,11.2,10.4,11.4h2.1v-49.7H-176.7z M-155.6,456h12.5v-49.7h-12.5V456z
					 M-134.5,406.3V456h2.1c3.4-0.2,9.8-1.8,10.3-10.2v-39.5H-134.5z"/>
			</defs>
			<clipPath id="SVGID_5_">
				<use xlink:href="#SVGID_4_"  style="overflow:visible;"/>
			</clipPath>
			<g class="st4">
				
					<radialGradient id="SVGID_6_" cx="-1038.3359" cy="1296.2098" r="1.89" gradientTransform="matrix(76.89 0 0 76.89 79635.2813 -99282.6406)" gradientUnits="userSpaceOnUse">
					<stop  offset="0" style="stop-color:#FCEE23"/>
					<stop  offset="1.000000e-002" style="stop-color:#FCEE23"/>
					<stop  offset="0.48" style="stop-color:#F69F24"/>
					<stop  offset="0.88" style="stop-color:#F16024"/>
					<stop  offset="1" style="stop-color:#F16024"/>
				</radialGradient>
				<rect x="-176.7" y="406.3" class="st5" width="54.7" height="49.7"/>
			</g>
		</g>
		<path class="st0" d="M-114.6,338.2h-69.6c-9.3,0-16.8,7.5-16.8,16.8c0,0,0,0,0,0v70.7c0,8.6,5.2,15.8,13.6,16.7v-90.4h76.1v90.4
			c8.3-1,13.5-8.1,13.5-16.7V355C-97.7,345.7-105.3,338.2-114.6,338.2C-114.5,338.2-114.6,338.2-114.6,338.2"/>
	</g>
</g>
</svg>
