<?xml version="1.0" encoding="UTF-8" standalone="no"?>
<svg
   xmlns:svg="http://www.w3.org/2000/svg"
   xmlns="http://www.w3.org/2000/svg"
   xmlns:xlink="http://www.w3.org/1999/xlink"
   version="1.1"
   width="163.58974"
   height="171.25348"
   id="svg2">
  <defs
     id="defs4">
    <linearGradient
       x1="55.549179"
       y1="77.070274"
       x2="110.14919"
       y2="131.85291"
       id="linearGradient9521"
       xlink:href="#linearGradient9515"
       gradientUnits="userSpaceOnUse" />
    <linearGradient
       id="linearGradient9515">
      <stop
         id="stop9517"
         style="stop-color:#387eb8;stop-opacity:1"
         offset="0" />
      <stop
         id="stop9519"
         style="stop-color:#366994;stop-opacity:1"
         offset="1" />
    </linearGradient>
    <linearGradient
       x1="89.136749"
       y1="111.92053"
       x2="147.77737"
       y2="168.1012"
       id="linearGradient11307"
       xlink:href="#linearGradient11301"
       gradientUnits="userSpaceOnUse" />
    <linearGradient
       id="linearGradient11301">
      <stop
         id="stop11303"
         style="stop-color:#ffe052;stop-opacity:1"
         offset="0" />
      <stop
         id="stop11305"
         style="stop-color:#ffc331;stop-opacity:1"
         offset="1" />
    </linearGradient>
  </defs>
  <g
     transform="translate(-42.2466,-50.6485)"
     id="layer1">
    <g
       id="g2894">
      <g
         transform="matrix(1.24012,0,0,1.24012,-544.777,-226.489)"
         id="layer1-7">
        <g
           transform="translate(428.423,184.256)"
           id="g1894">
          <path
             d="M 99.75,67.46875 C 71.718268,67.468752 73.46875,79.625 73.46875,79.625 L 73.5,92.21875 l 26.75,0 0,3.78125 -37.375,0 c 0,0 -17.9375,-2.034276 -17.9375,26.25 -2e-6,28.28427 15.65625,27.28125 15.65625,27.28125 l 9.34375,0 0,-13.125 c 0,0 -0.503652,-15.65625 15.40625,-15.65625 15.9099,0 26.53125,0 26.53125,0 0,0 14.90625,0.24096 14.90625,-14.40625 0,-14.647206 0,-24.21875 0,-24.21875 0,-2e-6 2.26318,-14.65625 -27.03125,-14.65625 z M 85,75.9375 c 2.661429,-2e-6 4.8125,2.151071 4.8125,4.8125 2e-6,2.661429 -2.151071,4.8125 -4.8125,4.8125 -2.661429,2e-6 -4.8125,-2.151071 -4.8125,-4.8125 -2e-6,-2.661429 2.151071,-4.8125 4.8125,-4.8125 z"
             id="path8615"
             style="color:#000000;fill:url(#linearGradient9521) #000000;fill-opacity:1;fill-rule:nonzero;stroke:none;stroke-width:1;marker:none;visibility:visible;display:inline;overflow:visible" />
          <path
             d="m 100.5461,177.31485 c 28.03174,0 26.28125,-12.15625 26.28125,-12.15625 l -0.0312,-12.59375 -26.75,0 0,-3.78125 37.375,0 c 0,0 17.9375,2.03427 17.9375,-26.25001 10e-6,-28.284267 -15.65625,-27.281247 -15.65625,-27.281247 l -9.34375,0 0,13.124997 c 0,0 0.50366,15.65625 -15.40625,15.65625 -15.909902,0 -26.531252,0 -26.531252,0 0,0 -14.90625,-0.24096 -14.90625,14.40626 0,14.6472 0,24.21875 0,24.21875 0,0 -2.26318,14.65625 27.031252,14.65625 z m 14.75,-8.46875 c -2.66143,0 -4.8125,-2.15107 -4.8125,-4.8125 0,-2.66143 2.15107,-4.8125 4.8125,-4.8125 2.66143,0 4.8125,2.15107 4.8125,4.8125 1e-5,2.66143 -2.15107,4.8125 -4.8125,4.8125 z"
             id="path8620"
             style="color:#000000;fill:url(#linearGradient11307) #000000;fill-opacity:1;fill-rule:nonzero;stroke:none;stroke-width:1;marker:none;visibility:visible;display:inline;overflow:visible" />
        </g>
      </g>
      <g
         transform="matrix(0.336,0,0,0.336,132.612,61.5713)"
         id="layer1-9">
        <g
           transform="translate(432,-133)"
           id="g2396">
          <path
             d="m -378.33328,299.25358 -7.26184,-6.67711 0.0118,-84.71249 c 0.0117,-83.62609 0.0388,-84.78455 2.11435,-90.33196 4.43707,-11.85913 11.10713,-15.89306 27.89749,-16.87189 10.06981,-0.58704 13.18358,-0.16957 76,10.18948 l 65.5,10.8016 0,69.96263 c 0,53.90228 -0.29319,70.92859 -1.27722,74.17058 -1.56788,5.16554 -6.72925,12.10273 -10.73743,14.43174 -1.98699,1.15457 -26.06029,5.60398 -71.98535,13.30489 -37.95,6.36361 -69.9,11.75908 -71,11.98992 -1.4051,0.29487 -4.16003,-1.56638 -9.26184,-6.25739 z m 91.38684,-23.17711 c 2.25641,0 2.375,-0.32456 2.375,-6.5 0,-5.78113 -0.21599,-6.5 -1.95295,-6.5 -3.70388,0 -6.85214,-2.24136 -8.60347,-6.12513 -0.96609,-2.14239 -1.57361,-4.03559 -1.35005,-4.2071 0.22356,-0.17151 2.53288,-1.52939 5.13182,-3.01751 12.90306,-7.38812 18.68728,-23.96169 18.72409,-53.65026 0.0443,-35.70973 -8.94704,-52.63835 -30.26591,-56.98381 -6.70354,-1.3664 -14.30708,-0.63312 -20.27292,1.95511 -8.91148,3.86617 -15.69871,14.21474 -19.03883,29.0287 -2.37545,10.5355 -2.34662,39.37509 0.0505,50.5 3.51644,16.31976 11.81536,28.41254 21.77764,31.7333 3.68933,1.22977 4.20364,1.83831 5.7544,6.80859 2.41185,7.73016 4.56676,11.48088 8.00116,13.92639 3.43513,2.44602 10.23575,4.07656 14.41955,3.45728 1.58125,-0.23406 3.94375,-0.42556 5.25,-0.42556 z m -22.60906,-37.30473 c -3.04896,-1.52007 -6.70937,-6.83665 -7.98395,-11.59631 -4.16759,-15.56307 -3.81851,-54.0943 0.58989,-65.11198 2.00113,-5.00129 6.62237,-8.98698 10.42005,-8.98698 4.20244,0 9.48751,5.06719 11.45111,10.97905 3.47238,10.45434 4.05746,45.54877 1.00529,60.29934 -2.42686,11.72859 -8.85965,17.71867 -15.48239,14.41688 z m 66.98406,7.25641 c 9.46242,-2.10155 10,-2.56605 10,-8.64039 0,-4.71812 -0.23391,-5.37657 -1.75,-4.92617 -5.99778,1.78186 -7.39498,1.79365 -9.29029,0.0784 -1.84998,-1.6742 -1.95971,-3.22064 -1.95971,-27.61852 l 0,-25.84501 6,0 6,0 0,-5.87083 0,-5.87084 -6,-0.67882 -6,-0.67882 0,-9.39133 c 0,-5.16523 -0.3375,-9.59681 -0.75,-9.84796 -0.4125,-0.25114 -2.9657,-0.6152 -5.67377,-0.80901 l -4.92378,-0.35239 -1.71558,7 c -0.94357,3.85 -1.99895,8.2375 -2.34528,9.75 -0.53873,2.35272 -1.13256,2.75 -4.11064,2.75 l -3.48095,0 0,6.5 0,6.5 3,0 3,0 0,29.03984 c 0,35.48318 0.3987,36.84529 11.5,39.28807 3.19245,0.70248 3.75518,0.67757 8.5,-0.37623 z"
             id="path2400"
             style="fill:#7cc040" />
          <path
             d="m -378.85274,298.29747 -5.7187,-5.77899 0,-85.35499 c 0,-61.88383 0.31913,-86.42015 1.16056,-89.22858 1.48069,-4.94212 6.97518,-11.37688 11.82873,-13.85298 2.07592,-1.05905 6.86507,-2.17885 10.64255,-2.48844 5.07942,-0.41629 6.2698,-0.30029 4.57064,0.4454 -4.94565,2.17044 -9.27463,6.48477 -11.92778,11.88743 l -2.7747,5.65015 -0.27987,92.25 c -0.15393,50.7375 -0.61802,92.25 -1.03131,92.25 -0.41328,0 -3.32484,-2.60055 -6.47012,-5.779 z m 71.06515,-22.41569 c -4.72952,-1.25739 -9.9682,-6.99399 -12.23849,-13.40172 -0.95556,-2.69697 -2.09542,-5.83025 -2.53302,-6.96284 -0.47618,-1.23245 -2.41587,-2.54468 -4.83102,-3.26828 -8.94116,-2.67884 -17.28444,-14.70117 -20.9091,-30.1292 -2.60283,-11.07867 -2.53035,-44.63455 0.1178,-54.54327 4.04993,-15.15377 11.74578,-24.97801 21.93753,-28.00463 6.56814,-1.95053 10.5804,-1.83637 4.99668,0.14217 -9.40476,3.33248 -16.3244,12.40347 -20.51453,26.89258 -2.09438,7.24219 -2.29813,9.88728 -2.23155,28.96988 0.0632,18.12683 0.36179,22.04722 2.18212,28.65411 4.10071,14.88354 10.26665,23.43542 20.10186,27.88038 4.5157,2.04084 5.29584,2.83845 6.25298,6.39301 2.27779,8.45903 6.80455,14.60181 12.68316,17.21094 2.15525,0.95658 2.29719,1.19465 0.70173,1.17699 -1.1,-0.0122 -3.67227,-0.46673 -5.71615,-1.01012 z m 47.30981,-30.11175 c -7.88148,-2.76162 -9.09366,-8.3944 -9.09366,-42.25673 0,-22.83622 -0.16216,-25.32156 -1.67124,-25.61351 -1.16362,-0.22511 -2.03969,-2.14578 -2.88427,-6.32332 -0.66716,-3.3 -1.01354,-6.3375 -0.76974,-6.75 0.24381,-0.4125 1.54173,-0.75 2.88427,-0.75 2.3555,0 2.44098,0.24513 2.44098,7 l 0,7 2.94445,0 2.94446,0 0.30554,29.25 c 0.33915,32.46628 0.5938,33.82092 7.1041,37.79048 2.49688,1.52244 2.76129,1.94044 1.20145,1.89934 -1.1,-0.029 -3.53285,-0.58981 -5.40634,-1.24626 z m -45.8338,-9.44356 c 5.64105,-5.88938 7.74014,-16.98166 7.74014,-40.90141 0,-22.89925 -2.73061,-35.94521 -8.34695,-39.87905 -2.03937,-1.42843 -2.01168,-1.46954 0.98958,-1.46954 10.23612,0 14.05235,14.15285 13.07774,48.5 -0.54192,19.09814 -1.79461,26.63129 -5.32436,32.01836 -1.6232,2.47731 -5.48286,4.48164 -8.63015,4.48164 -2.06696,0 -2.05009,-0.0939 0.494,-2.75 z m 65.24014,-4.25 c 1.1,-0.47269 3.35,-0.85943 5,-0.85943 2.55762,0 2.70508,0.12673 1,0.85943 -1.1,0.47269 -3.35,0.85943 -5,0.85943 -2.55762,0 -2.70508,-0.12673 -1,-0.85943 z m -26.20254,-69.25 c 4.3707,-19.12226 3.82937,-17.75 7.00201,-17.75 2.53638,0 2.85533,0.30004 2.35456,2.215 -0.31858,1.21824 -1.33616,5.71824 -2.26129,10 -1.63858,7.58382 -1.75864,7.785 -4.6458,7.785 -2.55924,0 -2.89356,-0.3071 -2.44948,-2.25 z"
             id="path2398"
             style="fill:#016123" />
        </g>
      </g>
    </g>
  </g>
</svg>
